{"title":"Batman v Superman-Dawn of Justice 2016 1080p TC X264 Masterediti","uid":14567128,"size":6070337687,"categoryP":"video","categoryS":"movies","magnet":"?xt=urn:btih:6244b57896cc68917340aa23716f7d7a6aebecd5&amp;dn=Batman+v+Superman-Dawn+of+Justice+2016+1080p+TC+X264+Masterediti&amp;tr=udp%3A%2F%2Ftracker.leechers-paradise.org%3A6969&amp;tr=udp%3A%2F%2Fzer0day.ch%3A1337&amp;tr=udp%3A%2F%2Fopen.demonii.com%3A1337&amp;tr=udp%3A%2F%2Ftracker.coppersurfer.tk%3A6969&amp;tr=udp%3A%2F%2Fexodus.desync.com%3A6969","seeders":1,"leechers":1,"uploader":"makintos13","files":3,"time":1462764362,"description":"Batman v Superman-Dawn of Justice 2016 1080p TC X264 Masteredition Hive-CM8 \r\n\r\nScreens:\r\n \nhttps://imgmak.com/THX\r\n \nhttps://imgmak.com/TvC\r\n \nhttps://imgmak.com/TvK\r\n \nhttps://imgmak.com/TvT\r\n \nhttps://imgmak.com/Tva\r\n \nhttps://imgmak.com/Tvp\r\n\r\n\r\nSource:\r\n \nhttps://imgmak.com/TvR\r\n\r\nThx Hive\r\n\r\nCM8 Doing It Right The First Time\r\n\r\nSources:\r\n\r\nVideo: 1080p Chinese Telecine\r\nAudio: Direct Line (CPG/Exclusive)\r\nthx\r\n\r\nNotes:\r\nThis is a special Encode which took me a whole week of work, but the result is excellent, its a masterpiece from this source\r\nI have encoded it in 1080p only cause this movie needs quality. daylight scenes are perfect and night scenes are now too\r\nQuality is tested and optimized to look perfect even on a 75&quot; 4K TV\r\n\r\nEncode:\r\nThe Chinese telecine needed a lot of work, brightness,constrast,colours,saturation,black base,white base\r\nand that all changed from scene to scene differently, so i had no other choice than to split the movie in scenes, and do each one as needed\r\nended up with 120 files and 1tb of data, and manually corrected them each\r\nit was a pita, but totally worth it. nothing is cut from the movie btw\r\n\r\nLine Audio was great, lipsynced to my video\r\n\r\ngot very nice and will do me till retail\r\nenjoy\r\n\r\nPS: more Masteredition are coming!\r\nVideo: 1920x820 @bitrate 5000-8000\r\nAudio: Line AC3 2.0 Stereo\r\nSample: yes included \nhttp://www.imdb.com/title/tt2975590/\r\n\r\nGeneral\r\nComplete name: Batman.v.Superman-Dawn of Justice.2016.1080p.TC.X264.Masteredition.Hive-CM8.mkv\r\nFormat: Matroska\r\nFormat version: Version 2\r\nFile size: 5.54 GiB\r\nDuration: 2h 31mn\r\nOverall bit rate mode: Variable\r\nOverall bit rate: 5 241 Kbps\r\nEncoded date: UTC 2016-05-06 19:35:14\r\nWriting application: mkvmerge v5.6.0 ('Kenya Kane') built on May 27 2012 16:44:04\r\nWriting library: libebml v1.2.3 + libmatroska v1.3.0\r\n\r\nVideo\r\nID: 1\r\nFormat: AVC\r\nFormat/Info: Advanced Video Codec\r\nFormat profile:   \r\nFormat settings, CABAC: Yes\r\nFormat settings, ReFrames: 4 frames\r\nFormat settings, GOP: M=4, N=33\r\nMuxing mode: Header stripping\r\nCodec ID: V_MPEG4/ISO/AVC\r\nDuration: 2h 31mn\r\nBit rate mode: Variable\r\nBit rate: 4 880 Kbps\r\nMaximum bit rate: 8 000 Kbps\r\nWidth: 1 920 pixels\r\nHeight: 820 pixels\r\nDisplay aspect ratio: 2.35:1\r\nFrame rate mode: Constant\r\nFrame rate: 29.970 fps\r\nStandard: NTSC\r\nColor space: YUV\r\nChroma subsampling: 4:2:0\r\nBit depth: 8 bits\r\nScan type: Progressive\r\nBits/(Pixel*Frame): 0.103\r\nStream size: 5.16 GiB (93%)\r\nLanguage: English\r\nDefault: Yes\r\nForced: No\r\nColor primaries: BT.709\r\nTransfer characteristics: BT.709\r\nMatrix coefficients: BT.709\r\nColor range: Limited\r\n\r\nAudio\r\nID: 2\r\nFormat: AC-3\r\nFormat/Info: Audio Coding 3\r\nMode extension: CM (complete main)\r\nFormat settings, Endianness: Big\r\nMuxing mode: Header stripping\r\nCodec ID: A_AC3\r\nDuration: 2h 31mn\r\nBit rate mode: Constant\r\nBit rate: 256 Kbps\r\nChannel(s): 2 channels\r\nChannel positions: Front: L R\r\nSampling rate: 48.0 KHz\r\nBit depth: 16 bits\r\nCompression mode: Lossy\r\nStream size: 277 MiB (5%)\r\nLanguage: English\r\nDefault: Yes\r\nForced: No\r\n\r\n::::\r\n\r\nPlot\r\n\r\nFearing that the actions of Superman are left unchecked, Batman takes on the Man of Steel, while the world wrestles with what kind of a hero it really needs\r\n\r\nCast overview, first billed only:\r\n\r\nBen Affleck ... Bruce Wayne / Batman\r\nHenry Cavill ... Clark Kent / Superman\r\nAmy Adams ... Lois\r\nJesse Eisenberg... Lex Luthor\r\nDiane Lane ... Martha Kent\r\nLaurence Fishburne... Perry White\r\nJeremy Irons ... Alfred\r\nHolly Hunter ... Senator Finch\r\nGal Gadot ... Diana Prince / Wonder Woman\r\nScoot McNairy ... Wallace Keefe\r\nCallan Mulvey ... Anatoli Knyazev\r\nTao Okamoto ... Mercy Graves\r\nBrandon Spink ... Young Bruce Wayne\r\nLauren Cohan ... Martha Wayne\r\nAlan D. Purwin ... Wayne Industries Pilot #1\r\n\r\nLOOKING FOR ANYTHING YOU WANT TO LOOK AND SOUND BETTER\r\n\r\nCOME FIND US WE DONT BITE","torrent":{"xt":"urn:btih:6244b57896cc68917340aa23716f7d7a6aebecd5","amp;dn":"Batman+v+Superman-Dawn+of+Justice+2016+1080p+TC+X264+Masterediti","amp;tr":["udp%3A%2F%2Ftracker.leechers-paradise.org%3A6969","udp%3A%2F%2Fzer0day.ch%3A1337","udp%3A%2F%2Fopen.demonii.com%3A1337","udp%3A%2F%2Ftracker.coppersurfer.tk%3A6969","udp%3A%2F%2Fexodus.desync.com%3A6969"],"infoHash":"6244b57896cc68917340aa23716f7d7a6aebecd5","infoHashBuffer":{"type":"Buffer","data":[98,68,181,120,150,204,104,145,115,64,170,35,113,111,125,122,106,235,236,213]},"announce":[],"urlList":[]}}